ffmpeg version N-62016-g8790720 Copyright (c) 2000-2014 the FFmpeg developers
  built on Apr  1 2014 14:42:22 with gcc 4.5.0 (tdm-1)
  configuration: --cpu=i686 --disable-opencl --enable-memalign-hack --enable-w32threads --disable-shared --enable-gpl --enable-nonfree --enable-libfaac --enable-libvorbis --enable-libtheora --enable-libx264 --enable-ffserver --enable-avisynth --extra-cflags=-I/local/include --extra-ldflags=-L/local/lib
  libavutil      52. 70.100 / 52. 70.100
  libavcodec     55. 55.107 / 55. 55.107
  libavformat    55. 36.100 / 55. 36.100
  libavdevice    55. 11.100 / 55. 11.100
  libavfilter     4.  3.100 /  4.  3.100
  libswscale      2.  5.102 /  2.  5.102
  libswresample   0. 18.100 /  0. 18.100
  libpostproc    52.  3.100 / 52.  3.100
[mpeg2video @ 039afee0] Invalid frame dimensions 0x0.
    Last message repeated 1 times
[mpegts @ 039abe60] PES packet size mismatch
    Last message repeated 1 times
[mpegts @ 039abe60] Could not find codec parameters for stream 3 (Unknown: none ([5][0][0][0] / 0x0005)): unknown codec
Consider increasing the value for the 'analyzeduration' and 'probesize' options
Input #0, mpegts, from 'D:\Videos\PCTV\Aufzeichnung\Dragon Ball Z Kai.ts':
  Duration: 00:00:26.20, start: 32578.882656, bitrate: 4343 kb/s
  Program 17500 
  Program 17501 
  Program 17502 
  Program 17503 
  Program 17504 
  Program 17505 
    Stream #0:0[0x25](deu,deu): Subtitle: dvb_teletext ([6][0][0][0] / 0x0006)
    Stream #0:1[0x5ff]: Video: mpeg2video (Main) ([2][0][0][0] / 0x0002), yuv420p(tv), 720x576 [SAR 64:45 DAR 16:9], max. 15000 kb/s, 25 fps, 25 tbr, 90k tbn, 50 tbc
    Stream #0:2[0x600](deu): Audio: mp2 ([3][0][0][0] / 0x0003), 48000 Hz, stereo, s16p, 191 kb/s (clean effects)
    Stream #0:3[0x605]: Unknown: none ([5][0][0][0] / 0x0005)
  Program 17507 
  Program 17508 
  Program 17509 
Output #0, mpeg, to 'D:\Videos\PCTV\Konvertierung\Dragon Ball Z Kai[MPEG program stream].mpg':
  Metadata:
    encoder         : Lavf55.36.100
    Stream #0:0: Video: mpeg2video ([2][0][0][0] / 0x0002), yuv420p, 720x576 [SAR 64:45 DAR 16:9], q=2-31, max. 15000 kb/s, 25 fps, 90k tbn, 25 tbc
    Stream #0:1(deu): Audio: mp2, 48000 Hz, stereo, s16, 192 kb/s (clean effects)
Stream mapping:
  Stream #0:1 -> #0:0 (copy)
  Stream #0:2 -> #0:1 (mp2 -> mp2)
Press [q] to stop, [?] for help
[mpegts @ 039abe60] PES packet size mismatch
[mp2 @ 039b35c0] incomplete frame
Error while decoding stream #0:2: Invalid data found when processing input
frame=  571 fps=0.0 q=-1.0 Lsize=    8060kB time=00:00:23.03 bitrate=2866.2kbits/s    
video:7491kB audio:528kB subtitle:0kB other streams:0kB global headers:0kB muxing overhead: 0.514970%
ffmpeg version N-62016-g8790720 Copyright (c) 2000-2014 the FFmpeg developers
  built on Apr  1 2014 14:42:22 with gcc 4.5.0 (tdm-1)
  configuration: --cpu=i686 --disable-opencl --enable-memalign-hack --enable-w32threads --disable-shared --enable-gpl --enable-nonfree --enable-libfaac --enable-libvorbis --enable-libtheora --enable-libx264 --enable-ffserver --enable-avisynth --extra-cflags=-I/local/include --extra-ldflags=-L/local/lib
  libavutil      52. 70.100 / 52. 70.100
  libavcodec     55. 55.107 / 55. 55.107
  libavformat    55. 36.100 / 55. 36.100
  libavdevice    55. 11.100 / 55. 11.100
  libavfilter     4.  3.100 /  4.  3.100
  libswscale      2.  5.102 /  2.  5.102
  libswresample   0. 18.100 /  0. 18.100
  libpostproc    52.  3.100 / 52.  3.100
[mpeg2video @ 01e1fee0] Invalid frame dimensions 0x0.
    Last message repeated 10 times
[mpegts @ 01e1be60] PES packet size mismatch
    Last message repeated 1 times
[mpegts @ 01e1be60] Could not find codec parameters for stream 4 (Unknown: none ([5][0][0][0] / 0x0005)): unknown codec
Consider increasing the value for the 'analyzeduration' and 'probesize' options
Input #0, mpegts, from 'D:\Videos\PCTV\Aufzeichnung\Jupiter Ascending.ts':
  Duration: 00:29:47.16, start: 11070.115600, bitrate: 4783 kb/s
  Program 17500 
  Program 17501 
    Stream #0:0[0x21](deu,deu): Subtitle: dvb_teletext ([6][0][0][0] / 0x0006)
    Stream #0:1[0x1ff]: Video: mpeg2video (Main) ([2][0][0][0] / 0x0002), yuv420p(tv), 720x576 [SAR 64:45 DAR 16:9], max. 15000 kb/s, 25 fps, 25 tbr, 90k tbn, 50 tbc
    Stream #0:2[0x200](deu): Audio: mp2 ([3][0][0][0] / 0x0003), 48000 Hz, stereo, s16p, 191 kb/s (clean effects)
    Stream #0:3[0x203](deu): Audio: ac3 ([6][0][0][0] / 0x0006), 48000 Hz, stereo, fltp, 384 kb/s (clean effects)
    Stream #0:4[0x205]: Unknown: none ([5][0][0][0] / 0x0005)
  Program 17502 
  Program 17503 
  Program 17504 
  Program 17505 
  Program 17507 
  Program 17508 
  Program 17509 
Output #0, mpeg, to 'D:\Videos\PCTV\Konvertierung\Jupiter Ascending[MPEG program stream].mpg':
  Metadata:
    encoder         : Lavf55.36.100
    Stream #0:0: Video: mpeg2video ([2][0][0][0] / 0x0002), yuv420p, 720x576 [SAR 64:45 DAR 16:9], q=2-31, max. 15000 kb/s, 25 fps, 90k tbn, 25 tbc
    Stream #0:1(deu): Audio: mp2, 48000 Hz, stereo, s16, 192 kb/s (clean effects)
Stream mapping:
  Stream #0:1 -> #0:0 (copy)
  Stream #0:2 -> #0:1 (mp2 -> mp2)
Press [q] to stop, [?] for help
frame= 1325 fps=0.0 q=-1.0 size=   22290kB time=00:00:53.05 bitrate=3442.0kbits/s    
frame= 2009 fps=1995 q=-1.0 size=   34048kB time=00:01:20.41 bitrate=3468.7kbits/s    
frame= 3260 fps=2149 q=-1.0 size=   55646kB time=00:02:10.45 bitrate=3494.4kbits/s    
frame= 4682 fps=2321 q=-1.0 size=   80410kB time=00:03:07.33 bitrate=3516.3kbits/s    
frame= 4942 fps=1958 q=-1.0 size=   84684kB time=00:03:17.73 bitrate=3508.5kbits/s    
frame= 5781 fps=1912 q=-1.0 size=   96472kB time=00:03:51.29 bitrate=3416.9kbits/s    
frame= 6992 fps=1984 q=-1.0 size=  112418kB time=00:04:39.73 bitrate=3292.2kbits/s    
frame= 7684 fps=1909 q=-1.0 size=  129100kB time=00:05:07.41 bitrate=3440.3kbits/s    
frame= 9152 fps=2023 q=-1.0 size=  151240kB time=00:06:06.13 bitrate=3383.9kbits/s    
frame= 9973 fps=1969 q=-1.0 size=  166958kB time=00:06:38.97 bitrate=3428.1kbits/s    
frame= 9994 fps=1760 q=-1.0 size=  167460kB time=00:06:39.81 bitrate=3431.2kbits/s    
frame=10019 fps=1615 q=-1.0 size=  167886kB time=00:06:40.81 bitrate=3431.4kbits/s    
frame=10057 fps=1490 q=-1.0 size=  168524kB time=00:06:42.33 bitrate=3431.4kbits/s    
frame=10868 fps=1499 q=-1.0 size=  181596kB time=00:07:14.77 bitrate=3421.7kbits/s    
frame=11747 fps=1510 q=-1.0 size=  192156kB time=00:07:49.93 bitrate=3349.7kbits/s    
frame=11781 fps=1413 q=-1.0 size=  192714kB time=00:07:51.29 bitrate=3349.8kbits/s    
frame=11842 fps=1337 q=-1.0 size=  193358kB time=00:07:53.73 bitrate=3343.7kbits/s    
[mpegts @ 01e1be60] PES packet size mismatch
[mp2 @ 01e235c0] Header missing
Error while decoding stream #0:2: Invalid data found when processing input
[mpegts @ 01e1be60] PES packet size mismatch
    Last message repeated 1 times
[mp2 @ 01e235c0] Header missing
Error while decoding stream #0:2: Invalid data found when processing input
[mp2 @ 01e235c0] Header missing
Error while decoding stream #0:2: Invalid data found when processing input
frame=13173 fps=1407 q=-1.0 size=  208728kB time=00:08:46.97 bitrate=3244.8kbits/s    
frame=14639 fps=1485 q=-1.0 size=  229226kB time=00:09:45.61 bitrate=3206.6kbits/s    
frame=15791 fps=1521 q=-1.0 size=  248044kB time=00:10:31.69 bitrate=3216.7kbits/s    
frame=15856 fps=1457 q=-1.0 size=  248734kB time=00:10:34.29 bitrate=3212.5kbits/s    
frame=16523 fps=1451 q=-1.0 size=  260990kB time=00:11:00.97 bitrate=3234.7kbits/s    
frame=17348 fps=1459 q=-1.0 size=  269986kB time=00:11:33.97 bitrate=3187.1kbits/s    
frame=17893 fps=1444 q=-1.0 size=  275232kB time=00:11:55.77 bitrate=3150.0kbits/s    
frame=19412 fps=1506 q=-1.0 size=  292106kB time=00:12:56.53 bitrate=3081.6kbits/s    
frame=19800 fps=1476 q=-1.0 size=  296088kB time=00:13:12.05 bitrate=3062.4kbits/s    
frame=19838 fps=1418 q=-1.0 size=  296736kB time=00:13:13.57 bitrate=3063.2kbits/s    
frame=19875 fps=1365 q=-1.0 size=  297192kB time=00:13:15.05 bitrate=3062.2kbits/s    
frame=19917 fps=1317 q=-1.0 size=  297742kB time=00:13:16.73 bitrate=3061.4kbits/s    
frame=20452 fps=1309 q=-1.0 size=  305442kB time=00:13:38.13 bitrate=3058.4kbits/s    
frame=20842 fps=1292 q=-1.0 size=  310132kB time=00:13:53.73 bitrate=3047.3kbits/s    
frame=21589 fps=1298 q=-1.0 size=  318946kB time=00:14:23.61 bitrate=3025.4kbits/s    
frame=23054 fps=1344 q=-1.0 size=  334968kB time=00:15:22.21 bitrate=2975.5kbits/s    
frame=23113 fps=1307 q=-1.0 size=  335634kB time=00:15:24.57 bitrate=2973.8kbits/s    
frame=23168 fps=1272 q=-1.0 size=  336164kB time=00:15:26.77 bitrate=2971.5kbits/s    
frame=23771 fps=1270 q=-1.0 size=  343648kB time=00:15:50.89 bitrate=2960.6kbits/s    
frame=25323 fps=1317 q=-1.0 size=  364514kB time=00:16:52.97 bitrate=2947.9kbits/s    
frame=26930 fps=1365 q=-1.0 size=  381346kB time=00:17:57.25 bitrate=2900.0kbits/s    
frame=27339 fps=1346 q=-1.0 size=  384478kB time=00:18:13.61 bitrate=2880.0kbits/s    
frame=27476 fps=1319 q=-1.0 size=  385516kB time=00:18:19.09 bitrate=2873.4kbits/s    
frame=28643 fps=1343 q=-1.0 size=  401730kB time=00:19:05.77 bitrate=2872.3kbits/s    
frame=28709 fps=1313 q=-1.0 size=  402286kB time=00:19:08.41 bitrate=2869.6kbits/s    
frame=28925 fps=1293 q=-1.0 size=  404458kB time=00:19:17.05 bitrate=2863.6kbits/s    
frame=29570 fps=1292 q=-1.0 size=  412598kB time=00:19:42.85 bitrate=2857.5kbits/s    
frame=29639 fps=1265 q=-1.0 size=  413284kB time=00:19:45.61 bitrate=2855.6kbits/s    
frame=29743 fps=1242 q=-1.0 size=  414154kB time=00:19:49.77 bitrate=2851.6kbits/s    
frame=29857 fps=1220 q=-1.0 size=  415256kB time=00:19:54.33 bitrate=2848.3kbits/s    
frame=31199 fps=1249 q=-1.0 size=  428878kB time=00:20:48.01 bitrate=2815.2kbits/s    
frame=32240 fps=1265 q=-1.0 size=  439286kB time=00:21:29.65 bitrate=2790.4kbits/s    
frame=32305 fps=1242 q=-1.0 size=  440020kB time=00:21:32.25 bitrate=2789.4kbits/s    
frame=32852 fps=1239 q=-1.0 size=  455344kB time=00:21:54.13 bitrate=2838.5kbits/s    
frame=33367 fps=1234 q=-1.0 size=  465770kB time=00:22:14.73 bitrate=2858.7kbits/s    
frame=34343 fps=1247 q=-1.0 size=  484348kB time=00:22:53.77 bitrate=2888.2kbits/s    
frame=35742 fps=1274 q=-1.0 size=  507988kB time=00:23:49.73 bitrate=2910.6kbits/s    
frame=35819 fps=1254 q=-1.0 size=  509002kB time=00:23:52.81 bitrate=2910.2kbits/s    
frame=35863 fps=1233 q=-1.0 size=  509878kB time=00:23:54.57 bitrate=2911.6kbits/s    
frame=35899 fps=1212 q=-1.0 size=  510786kB time=00:23:56.01 bitrate=2913.9kbits/s    
frame=35942 fps=1193 q=-1.0 size=  511626kB time=00:23:57.73 bitrate=2915.2kbits/s    
frame=36155 fps=1181 q=-1.0 size=  514462kB time=00:24:06.25 bitrate=2914.1kbits/s    
frame=36752 fps=1180 q=-1.0 size=  522814kB time=00:24:30.13 bitrate=2913.3kbits/s    
frame=36981 fps=1169 q=-1.0 size=  526112kB time=00:24:39.29 bitrate=2913.5kbits/s    
frame=38522 fps=1198 q=-1.0 size=  547738kB time=00:25:40.93 bitrate=2911.9kbits/s    
frame=38651 fps=1182 q=-1.0 size=  549122kB time=00:25:46.09 bitrate=2909.5kbits/s    
frame=38711 fps=1166 q=-1.0 size=  549692kB time=00:25:48.49 bitrate=2908.0kbits/s    
frame=38809 fps=1150 q=-1.0 size=  550586kB time=00:25:52.41 bitrate=2905.4kbits/s    
frame=39320 fps=1148 q=-1.0 size=  556680kB time=00:26:12.85 bitrate=2899.4kbits/s    
frame=40847 fps=1175 q=-1.0 size=  577780kB time=00:27:13.93 bitrate=2896.8kbits/s    
frame=41331 fps=1171 q=-1.0 size=  583444kB time=00:27:33.29 bitrate=2890.9kbits/s    
frame=41397 fps=1156 q=-1.0 size=  584114kB time=00:27:35.93 bitrate=2889.7kbits/s    
frame=41673 fps=1146 q=-1.0 size=  587548kB time=00:27:46.97 bitrate=2887.4kbits/s    
frame=41717 fps=1131 q=-1.0 size=  588364kB time=00:27:48.73 bitrate=2888.4kbits/s    
frame=42347 fps=1132 q=-1.0 size=  594892kB time=00:28:13.93 bitrate=2877.0kbits/s    
frame=43133 fps=1136 q=-1.0 size=  602858kB time=00:28:45.37 bitrate=2862.3kbits/s    
frame=43571 fps=1133 q=-1.0 size=  607130kB time=00:29:02.89 bitrate=2853.7kbits/s    
[mpegts @ 01e1be60] PES packet size mismatch
[mp2 @ 01e235c0] incomplete frame
Error while decoding stream #0:2: Invalid data found when processing input
frame=44601 fps=1149 q=-1.0 Lsize=  623256kB time=00:29:44.09 bitrate=2861.8kbits/s    
video:578351kB audio:41804kB subtitle:0kB other streams:0kB global headers:0kB muxing overhead: 0.499894%
